<?xml version="1.0" encoding="UTF-8"?>
<svg id="Layer_2" data-name="Layer 2" xmlns="http://www.w3.org/2000/svg" viewBox="0 0 93 44">
  <defs>
    <style>
      .cls-1 {
        fill: #eff0f3;
      }

      .cls-2 {
        fill: none;
        stroke: #eff0f3;
        stroke-linecap: round;
        stroke-linejoin: round;
      }

      .cls-3 {
        fill: #1a1a1a;
      }
    </style>
  </defs>
  <rect class="cls-3" width="93" height="44" rx="4" ry="4"/>
  <path class="cls-2" d="m19.33,22h9.33"/>
  <path class="cls-2" d="m22.67,18.67l-3.33,3.33"/>
  <path class="cls-2" d="m22.67,25.33l-3.33-3.33"/>
  <path class="cls-1" d="m45.59,21.72c.45.08.83.32,1.14.71s.47.84.47,1.33c0,.42-.11.81-.34,1.15-.22.34-.53.6-.95.8-.42.19-.9.29-1.45.29h-3.34v-8.34h3.18c.57,0,1.06.1,1.46.29s.72.45.92.78c.21.32.31.68.31,1.08,0,.48-.13.88-.38,1.2-.26.32-.6.56-1.03.71Zm-3.1-.55h1.69c.45,0,.8-.1,1.04-.3.26-.21.38-.5.38-.89s-.13-.67-.38-.88c-.25-.22-.6-.32-1.04-.32h-1.69v2.39Zm1.85,3.72c.46,0,.83-.11,1.09-.34.26-.22.4-.54.4-.94s-.14-.73-.42-.97-.65-.36-1.12-.36h-1.8v2.6h1.85Zm10.62-.59h-3.49l-.6,1.7h-1.43l2.99-8.35h1.58l2.99,8.35h-1.44l-.6-1.7Zm-.38-1.12l-1.36-3.88-1.37,3.88h2.72Zm4.52-1.37c0-.82.19-1.55.56-2.2.38-.65.9-1.15,1.55-1.51.66-.37,1.37-.55,2.15-.55.89,0,1.68.22,2.36.66.7.43,1.2,1.05,1.51,1.85h-1.64c-.22-.44-.52-.77-.9-.98-.38-.22-.83-.32-1.33-.32-.55,0-1.04.12-1.48.37-.43.25-.77.6-1.02,1.07-.24.46-.36,1-.36,1.62s.12,1.16.36,1.62c.25.46.59.82,1.02,1.08.43.25.92.37,1.48.37.5,0,.95-.11,1.33-.32.38-.22.68-.54.9-.98h1.64c-.31.8-.82,1.42-1.51,1.85-.69.43-1.48.65-2.36.65-.78,0-1.5-.18-2.15-.54-.65-.37-1.16-.88-1.55-1.52-.38-.65-.56-1.38-.56-2.2Zm15.58,4.19l-3.23-3.73v3.73h-1.37v-8.34h1.37v3.8l3.24-3.8h1.72l-3.62,4.18,3.68,4.16h-1.79Z"/>
</svg>