<?xml version="1.0" encoding="UTF-8"?>
<svg id="Layer_1" data-name="Layer 1" xmlns="http://www.w3.org/2000/svg" viewBox="0 0 100.82 48">
  <defs>
    <style>
      .cls-1 {
        fill: #1a1a1a;
      }
    </style>
  </defs>
  <path class="cls-1" d="m26.99,9.9v-4.57c0-2.94,2.3-5.33,5.13-5.33h4.4c.4,0,.73.34.73.76s-.33.76-.73.76h-4.4c-2.02,0-3.67,1.71-3.67,3.81v4.57c0,.42-.33.76-.73.76s-.73-.34-.73-.76h0Zm9.53,36.58h-4.4c-2.02,0-3.67-1.71-3.67-3.81v-4.57c0-.42-.33-.76-.73-.76s-.73.34-.73.76v4.57c0,2.94,2.3,5.33,5.13,5.33h4.4c.4,0,.73-.34.73-.76s-.33-.76-.73-.76h0Zm36.58-9.14c-.4,0-.73.34-.73.76v4.57c0,2.1-1.64,3.81-3.67,3.81h-4.4c-.4,0-.73.34-.73.76s.33.76.73.76h4.4c2.83,0,5.13-2.39,5.13-5.33v-4.57c0-.42-.33-.76-.73-.76h0ZM68.7,0h-4.4c-.4,0-.73.34-.73.76s.33.76.73.76h4.4c2.02,0,3.67,1.71,3.67,3.81v4.57c0,.42.33.76.73.76s.73-.34.73-.76v-4.57C73.83,2.39,71.53,0,68.7,0h0Z"/>
  <path class="cls-1" d="m76.02,18.75h.82v10.5h-.82v-10.5Zm7.19,10.5h.8v-4.76h4.23v-.75h-4.23v-4.24h4.89v-.75h-5.69v10.5Zm16.88-10.5c-.08,0-.14.02-.2.07-.05.04-.09.09-.11.15l-2.78,4.77c-.06.11-.11.22-.16.33-.02.05-.05.11-.07.16-.02-.05-.05-.11-.07-.16-.05-.11-.11-.22-.17-.33l-2.77-4.76c-.03-.07-.07-.12-.12-.16-.05-.04-.12-.06-.2-.06h-.73l3.64,6.18v4.32h.82v-4.32l3.58-6.08.06-.09h-.73Z"/>
  <path class="cls-1" d="m37.28,18.75h-2.09l-4.15,10.41-.03.08h1.61c.18,0,.33-.05.45-.15.13-.1.21-.21.25-.33l.77-2.08h4.27l.77,2.08c.05.13.14.25.25.34.12.09.28.13.46.13h1.61l-4.17-10.46-.02-.04h0Zm-1.19,2.55c.05-.15.1-.31.14-.47.05.16.1.32.14.48.07.21.14.39.2.54l1.25,3.37h-3.18l1.25-3.35c.06-.16.13-.35.19-.56h0Zm16.89,3.48c.32-.11.61-.25.87-.42.29-.19.55-.42.74-.68.2-.26.36-.55.46-.86.11-.32.16-.66.16-1.01,0-.44-.08-.86-.24-1.23-.15-.38-.4-.7-.74-.97-.33-.27-.76-.48-1.28-.62-.51-.15-1.14-.23-1.86-.23h-3.27v10.5h2.08v-4.05h.78c.18,0,.32.02.41.07.09.05.18.13.25.24l2.21,3.32c.09.13.19.23.32.31.13.07.29.11.47.11h1.88l-2.7-3.93c-.16-.22-.34-.4-.54-.54h0Zm.2-2.84c0,.25-.04.49-.13.7-.08.21-.21.4-.38.55-.17.15-.39.27-.66.36-.27.09-.58.13-.94.13h-1.16v-3.32h1.19c.71,0,1.23.14,1.57.41.34.27.51.66.51,1.16h0Zm11.37-1.48h-3.18v-1.71h8.43v1.71h-3.17v8.79h-2.08v-8.79h0Z"/>
  <path class="cls-1" d="m7.23,25.04c.18.28.27.64.27,1.07s-.09.85-.27,1.23c-.17.38-.43.71-.76,1-.33.28-.74.51-1.22.67-.48.16-1.03.24-1.64.24-.79,0-1.49-.12-2.06-.36-.57-.24-1.08-.57-1.51-.99l-.04-.04.27-.36c.08-.09.18-.13.29-.13.06,0,.14.03.23.1.08.06.18.13.29.22.11.08.25.17.4.27.15.09.33.18.54.27.2.08.44.15.71.2.27.06.57.08.91.08.46,0,.89-.06,1.25-.18.36-.12.67-.29.92-.49.25-.2.44-.45.57-.72.13-.28.2-.59.2-.9,0-.34-.08-.63-.25-.84-.16-.23-.38-.42-.66-.56-.28-.16-.6-.29-.95-.39-.37-.11-.74-.21-1.1-.31-.38-.1-.75-.22-1.11-.34-.36-.12-.68-.29-.97-.48-.29-.2-.53-.45-.7-.74-.17-.3-.26-.68-.26-1.12,0-.35.08-.69.23-1.01.16-.32.39-.61.68-.85.3-.25.67-.45,1.1-.59.44-.15.94-.23,1.5-.23.62,0,1.19.08,1.69.25.5.17.96.43,1.37.78l.04.04-.23.38c-.06.1-.16.15-.27.15-.09,0-.19-.05-.32-.14-.11-.09-.26-.19-.46-.29-.19-.11-.44-.21-.73-.3-.29-.09-.65-.13-1.07-.13s-.81.05-1.13.16c-.32.1-.59.24-.81.42-.21.18-.38.38-.49.61-.11.23-.16.47-.16.72,0,.33.08.6.24.82.17.22.39.4.66.56.28.16.59.29.94.4.36.11.73.21,1.11.32.38.1.75.22,1.1.35.36.13.69.29.98.48.29.2.52.44.7.73h0Zm16.74-6.26c-.06.02-.11.07-.16.14l-4.38,7.21c-.04.07-.08.15-.12.23-.01.03-.03.06-.05.09-.05-.11-.1-.21-.16-.31l-4.51-7.21c-.05-.08-.1-.12-.16-.14-.05-.02-.11-.03-.19-.03h-.62v10.5h.83v-8.9c0-.06,0-.11,0-.17l4.38,7.05c.09.15.21.22.37.22h.13c.16,0,.28-.07.37-.22l4.26-7.03s0,.1,0,.15v8.9h.83v-10.5h-.61c-.08,0-.15,0-.2.03h0Z"/>
</svg>